<svg id="Flat" height="512" viewBox="0 0 64 64" width="512" xmlns="http://www.w3.org/2000/svg"><path d="m47 1h-42a4 4 0 0 0 -4 4v48h50v-48a4 4 0 0 0 -4-4z" fill="#fff"/><path d="m47 0h-42a5.006 5.006 0 0 0 -5 5v54a5.006 5.006 0 0 0 5 5h42a5.006 5.006 0 0 0 5-5v-54a5.006 5.006 0 0 0 -5-5zm-45 52v-47a3 3 0 0 1 3-3h42a3 3 0 0 1 3 3v47z" fill="#1ee0d7"/><path d="m38 59h-4a1 1 0 0 1 0-2h4a1 1 0 0 1 0 2z" fill="#00cabd"/><path d="m18 59h-4a1 1 0 0 1 0-2h4a1 1 0 0 1 0 2z" fill="#00cabd"/><path d="m30 6h-8a1 1 0 0 1 0-2h8a1 1 0 0 1 0 2z" fill="#465064"/><circle cx="34" cy="5" fill="#465064" r="1"/><rect fill="#00cabd" height="4" rx="2" width="8" x="22" y="56"/><path d="m11 9.245 1.545 3.13 3.455.502-2.5 2.437.59 3.441-3.09-1.624-3.09 1.624.59-3.441-2.5-2.437 3.455-.502z" fill="#ffdc28"/><path d="m26 9.245 1.545 3.13 3.455.502-2.5 2.437.59 3.441-3.09-1.624-3.09 1.624.59-3.441-2.5-2.437 3.455-.502z" fill="#ffdc28"/><path d="m41 9.245 1.545 3.13 3.455.502-2.5 2.437.59 3.441-3.09-1.624-3.09 1.624.59-3.441-2.5-2.437 3.455-.502z" fill="#ffdc28"/><g fill="#465064"><path d="m31 32h-7a1 1 0 0 1 0-2h7a1 1 0 0 1 0 2z"/><path d="m31 27h-7a1 1 0 0 1 0-2h7a1 1 0 0 1 0 2z"/><path d="m31 47h-7a1 1 0 0 1 0-2h7a1 1 0 0 1 0 2z"/><path d="m31 42h-7a1 1 0 0 1 0-2h7a1 1 0 0 1 0 2z"/></g><path d="m6 23h14v10h-14z" fill="#63b7ff"/><path d="m8 25h12v8h-12z" fill="#4a9fff"/><path d="m6 38h14v10h-14z" fill="#50faf0"/><path d="m8 40h12v8h-12z" fill="#1ee0d7"/><path d="m13 26-3 3v4h6v-4z" fill="#fa9537"/><path d="m6 42h5v6h-5z" fill="#fff56e"/><path d="m8 42h3v6h-3z" fill="#ffdc28"/><path d="m11 44h9v4h-9z" fill="#fa9537"/><path d="m48.717 37.218h4v11h-4z" fill="#50faf0" transform="matrix(.707 -.707 .707 .707 -15.351 48.374)"/><path d="m55.142 45.142h6a0 0 0 0 1 0 0v7a3 3 0 0 1 -3 3 3 3 0 0 1 -3-3v-7a0 0 0 0 1 0 0z" fill="#465064" transform="matrix(.707 -.707 .707 .707 -18.426 55.799)"/><circle cx="44" cy="36" fill="#f0f0f0" r="10" transform="matrix(.707 -.707 .707 .707 -12.569 41.657)"/><circle cx="45" cy="37" fill="#fff" r="8" transform="matrix(.707 -.707 .707 .707 -12.983 42.657)"/><path d="m44 47a11 11 0 1 1 11-11 11.013 11.013 0 0 1 -11 11zm0-20a9 9 0 1 0 9 9 9.011 9.011 0 0 0 -9-9z" fill="#465064"/></svg>