<svg enable-background="new 0 0 512 512" height="512" viewBox="0 0 512 512" width="512" xmlns="http://www.w3.org/2000/svg"><g id="_x34_13_x2C__Analytics_x2C__Business_x2C__Data_x2C__Document_x2C__User"><g><g><path d="m261 401.33c-2.762 0-5-2.238-5-5v-115.33c0-2.762 2.238-5 5-5 2.761 0 5 2.238 5 5v115.33c0 2.762-2.239 5-5 5z" fill="#006c87"/><circle cx="446" cy="71" fill="#fec100" r="30"/><circle cx="61" cy="71" fill="#fec100" r="25"/><path d="m141 486h-50-30v-17.4c0-30.38 24.62-55 55-55 15.19 0 28.94 6.16 38.89 16.11s16.11 23.7 16.11 38.89v17.4z" fill="#fe5a5a"/><path d="m431 486h-50-30v-17.4c0-30.38 24.62-55 55-55 15.19 0 28.94 6.16 38.89 16.11s16.11 23.7 16.11 38.89v17.4z" fill="#8fe269"/><path d="m406.37 349.19c17.78 0 32.2 14.42 32.2 32.21 0 17.779-14.42 32.199-32.2 32.199-.12 0-.25 0-.37 0-17.61-.199-31.831-14.54-31.831-32.199 0-17.79 14.421-32.21 32.201-32.21z" fill="#ffd5ab"/><path d="m116.37 349.19c17.78 0 32.2 14.42 32.2 32.21 0 17.779-14.42 32.199-32.2 32.199-.12 0-.25 0-.37 0-17.61-.199-31.831-14.539-31.831-32.199 0-17.79 14.421-32.21 32.201-32.21z" fill="#ffd5ab"/><path d="m466.28 214.89c0 36.51-29.601 66.11-66.111 66.11-15.597 0-267.795 0-283.339 0-36.51 0-66.11-29.6-66.11-66.11 0-35.47 27.94-64.41 63.01-66.03-4.07-10.26-6.34-21.43-6.34-33.14 0-49.55 40.17-89.72 89.72-89.72 39.99 0 73.86 26.17 85.45 62.32 11.431-9.43 26.08-15.1 42.051-15.1 40.444 0 71.593 36.095 65.319 76.35 3.34-.52 76.35 24.903 76.35 65.32z" fill="#87cef0"/><g fill="#4d3aff"><circle cx="468.5" cy="143.5" r="7.495"/><circle cx="463.5" cy="348.5" r="7.495"/><circle cx="388.5" cy="43.5" r="7.495"/><circle cx="333.5" cy="328.5" r="7.495"/><circle cx="203.5" cy="463.5" r="7.495"/><circle cx="193.5" cy="313.5" r="7.495"/><circle cx="63.5" cy="333.5" r="7.495"/><circle cx="48.5" cy="143.5" r="7.495"/></g><g fill="#3cbaeb"><path d="m198.5 56c2.761 0 5-2.239 5-5s-2.239-5-5-5c-38.648 0-70.09 31.442-70.09 70.09 0 2.761 2.239 5 5 5s5-2.239 5-5c0-33.134 26.956-60.09 60.09-60.09z"/><path d="m321 231h-175c-2.761 0-5 2.239-5 5s2.239 5 5 5h175c2.761 0 5-2.239 5-5s-2.239-5-5-5z"/><path d="m361 206h-105c-2.761 0-5 2.239-5 5s2.239 5 5 5h105c2.761 0 5-2.239 5-5s-2.239-5-5-5z"/></g><path d="m336 426.33h-50c-2.762 0-5-2.238-5-5s2.238-5 5-5h50c2.761 0 5 2.238 5 5s-2.239 5-5 5z" fill="#006c87"/><path d="m236 426.33h-50c-2.761 0-5-2.238-5-5s2.239-5 5-5h50c2.761 0 5 2.238 5 5s-2.239 5-5 5z" fill="#006c87"/><path d="m261 395.807c-14.074 0-25.524 11.449-25.524 25.523s11.45 25.523 25.524 25.523 25.523-11.449 25.523-25.523-11.449-25.523-25.523-25.523z" fill="#fec100"/><path d="m96 461c0-2.762-2.239-5-5-5s-5 2.238-5 5v25h10z" fill="#e50058"/><path d="m146 461c0-2.762-2.239-5-5-5s-5 2.238-5 5v25h10z" fill="#e50058"/><path d="m386 461c0-2.762-2.239-5-5-5-2.762 0-5 2.238-5 5v25h10z" fill="#00cc76"/><path d="m436 461c0-2.762-2.239-5-5-5-2.762 0-5 2.238-5 5v25h10z" fill="#00cc76"/></g></g></g></svg>