<svg height="496pt" viewBox="0 0 496.19191 496" width="496pt" xmlns="http://www.w3.org/2000/svg"><path d="m32 136.097656v288h357.441406c9.21875 19.570313 28.925782 32.042969 50.558594 32h-440v-352h384v32zm0 0" fill="#74b9ff"/><path d="m384 400.097656c-.03125 8.308594 1.828125 16.515625 5.441406 24h-357.441406v-288h352zm0 0" fill="#8fccff"/><path d="m496 96.097656v304c0-30.929687-25.070312-56-56-56s-56 25.070313-56 56v-304c0-30.929687 25.070312-56 56-56s56 25.070313 56 56zm0 0" fill="#0984e3"/><path d="m389.441406 424.097656c-3.613281-7.484375-5.472656-15.691406-5.441406-24-.050781-28.585937 21.402344-52.636718 49.808594-55.84375 28.40625-3.203125 54.675781 15.464844 60.996094 43.34375 6.320312 27.878906-9.335938 56.046875-36.347657 65.40625-27.011719 9.355469-56.738281-3.09375-69.015625-28.90625zm74.558594-24c0-13.257812-10.746094-24-24-24s-24 10.742188-24 24c0 13.253906 10.746094 24 24 24s24-10.746094 24-24zm0 0" fill="#73b7e5"/><path d="m464 400.097656c0 13.253906-10.746094 24-24 24s-24-10.746094-24-24c0-13.257812 10.746094-24 24-24s24 10.742188 24 24zm0 0" fill="#edf1f2"/><path d="m384 184.097656v72c-39.765625 0-72 32.234375-72 72h-72v-24l35.121094-1.921875c2.757812-11.5625 7.351562-22.609375 13.597656-32.71875l-23.519531-26.242187 33.921875-33.917969 26.238281 23.519531c10.113281-6.25 21.160156-10.839844 32.71875-13.601562l1.921875-35.117188zm0 0" fill="#ff7675"/><path d="m275.121094 35.214844 34.480468 35.042968-17.28125 17.597657-34.398437-35.121094zm0 0" fill="#6e7a7c"/><path d="m309.601562.0976562 34.398438 35.1171878-34.398438 35.042968-34.480468-35.042968zm0 0" fill="#dfe6e9"/><path d="m160.160156 199.136719 5.761719 17.597656-57.441406 23.363281 22.960937-58.480468 17.199219 5.839843zm0 0" fill="#fab1a0"/><path d="m207.519531 104.097656 50.402344-51.363281 34.398437 35.121094-14.160156 14.480469-31.679687 32.238281-80.558594 82.160156-5.761719-17.597656-11.519531-11.679688-17.199219-5.839843 44.636719-45.441407zm0 0" fill="#81ecec"/><path d="m320 496.097656h-288v-288zm-248-40h152l-152-152zm0 0" fill="#fdcb6e"/><path d="m269.414062 40.824219 11.410157-11.230469 34.484375 35.039062-11.410156 11.226563zm0 0" fill="#b2bec3"/><g fill="#73b7e5"><path d="m344 352.097656h16v16h-16zm0 0"/><path d="m312 352.097656h16v16h-16zm0 0"/><path d="m280 352.097656h16v16h-16zm0 0"/><path d="m256 384.097656h104v16h-104zm0 0"/></g><path d="m200 328.097656h-16v-24c0-4.421875-3.582031-8-8-8h-8c-13.253906 0-24-10.746094-24-24 .066406-13.230468 10.773438-23.9375 24-24h40c4.417969 0 8-3.582031 8-8v-16h16v16c0 13.253906-10.746094 24-24 24h-40c-2.082031-.019531-4.085938.808594-5.542969 2.292969-1.574219 1.480469-2.460937 3.546875-2.457031 5.707031 0 4.417969 3.582031 8 8 8h8c13.253906 0 24 10.742188 24 24zm0 0" fill="#0984e3"/><path d="m216 192.097656h16v16h-16zm0 0" fill="#0984e3"/></svg>