<svg enable-background="new 0 0 512 512" height="512" viewBox="0 0 512 512" width="512" xmlns="http://www.w3.org/2000/svg"><g id="_x33_0_Idea"><g><path d="m294.888 487.538c0-9.778-7.927-17.704-17.704-17.704h-42.37c-9.778 0-17.704 7.926-17.704 17.704 0 9.778 7.927 17.704 17.704 17.704h42.37c9.778 0 17.704-7.926 17.704-17.704z" fill="#475da9"/><g><path d="m255.997 30.355c-2.9 0-5.247-2.349-5.247-5.247v-13.103c0-2.898 2.347-5.247 5.247-5.247s5.247 2.349 5.247 5.247v13.103c.001 2.898-2.346 5.247-5.247 5.247z" fill="#474747"/></g><path d="m400.025 202.63c0 41.016-17.121 77.997-44.619 104.2-29.992 28.58-48.188 67.333-48.188 108.762v1.114h-102.437v-1.114c0-41.429-18.196-80.182-48.188-108.762-27.498-26.203-44.619-63.184-44.619-104.2 0-79.496 64.468-144.025 144.025-144.025s144.026 64.529 144.026 144.025z" fill="#fdcf17"/><path d="m400.046 202.615c0 41.051-17.166 78.036-44.665 104.237-29.983 28.571-48.165 67.307-48.165 108.752v1.13h-102.43v-1.13c0-7.113-.508-14.117-1.581-21.005 37.437-8.074 69.961-32.072 90.007-65.952 7.453-12.479 16.657-23.998 27.386-34.219 28.233-26.878 45.512-65.162 44.552-107.398-1.129-54.15-33.089-101.752-79.052-125.241 65.104 13.834 113.948 71.655 113.948 140.826z" opacity=".12"/><g><path d="m381.372 82.286c-2.05-2.05-2.05-5.37 0-7.42l9.265-9.265c2.05-2.05 5.37-2.05 7.42 0s2.05 5.37 0 7.42l-9.265 9.265c-2.05 2.05-5.371 2.05-7.42 0z" fill="#474747"/></g><g><path d="m113.944 349.719c-2.05-2.05-2.05-5.37 0-7.42l9.265-9.265c2.05-2.05 5.37-2.05 7.42 0s2.05 5.37 0 7.42l-9.265 9.265c-2.05 2.05-5.37 2.05-7.42 0z" fill="#474747"/></g><g><path d="m451.656 212.908h-13.108c-2.9 0-5.247-2.349-5.247-5.247s2.347-5.247 5.247-5.247h13.108c2.9 0 5.247 2.349 5.247 5.247 0 2.897-2.347 5.247-5.247 5.247z" fill="#474747"/></g><g><path d="m73.447 212.91h-13.103c-2.9 0-5.247-2.349-5.247-5.247s2.347-5.247 5.247-5.247h13.103c2.9 0 5.247 2.349 5.247 5.247s-2.347 5.247-5.247 5.247z" fill="#474747"/></g><g><path d="m390.636 349.719-9.265-9.267c-2.05-2.05-2.05-5.373 0-7.42 2.05-2.05 5.37-2.05 7.42 0l9.265 9.267c2.05 2.05 2.05 5.373 0 7.42-2.049 2.05-5.37 2.05-7.42 0z" fill="#474747"/></g><g><path d="m123.203 82.292-9.265-9.267c-2.05-2.05-2.05-5.373 0-7.42 2.05-2.05 5.37-2.05 7.42 0l9.265 9.267c2.05 2.05 2.05 5.373 0 7.42-2.049 2.049-5.37 2.049-7.42 0z" fill="#474747"/></g><g><path d="m241.634 438.112c-2.9 0-5.247-2.349-5.247-5.247v-139.538c0-2.898 2.347-5.247 5.247-5.247s5.247 2.349 5.247 5.247v139.538c0 2.898-2.346 5.247-5.247 5.247z" fill="#e8f1f8"/></g><g><path d="m270.366 438.112c-2.9 0-5.247-2.349-5.247-5.247v-139.538c0-2.898 2.347-5.247 5.247-5.247s5.247 2.349 5.247 5.247v139.538c0 2.898-2.347 5.247-5.247 5.247z" fill="#e8f1f8"/></g><path d="m326.074 432.68v38.895c0 8.816-7.147 15.962-15.962 15.962h-108.226c-8.816 0-15.962-7.147-15.962-15.962v-38.895c0-8.816 7.147-15.962 15.962-15.962h108.225c8.816 0 15.963 7.147 15.963 15.962z" fill="#474747"/><path d="m346.315 207.624c0 49.918-40.434 90.352-90.352 90.352-49.847 0-90.28-40.434-90.28-90.352 0-49.847 40.434-90.281 90.28-90.281 49.918 0 90.352 40.434 90.352 90.281z" fill="#0e9c4a"/><path d="m346.303 207.621c0 49.901-40.403 90.357-90.357 90.357-30.854 0-58.087-15.479-74.353-39.144 10.704 4.093 22.301 6.296 34.422 6.296 53.836 0 97.441-43.605 97.441-97.441 0-12.121-2.204-23.717-6.297-34.421 23.665 16.214 39.144 43.499 39.144 74.353z" opacity=".12"/><g><path d="m256.044 230.253c-2.9 0-5.247-2.349-5.247-5.247v-4.602c0-7.958 4.878-15.155 12.734-18.783 6.969-3.223 12.559-11.722 9.746-21.724-1.686-5.99-6.661-10.789-12.677-12.226-12.141-2.899-22.623 6.172-22.623 17.52 0 2.898-2.347 5.247-5.247 5.247s-5.247-2.349-5.247-5.247c0-18.247 16.937-32.156 35.557-27.727 9.659 2.306 17.643 9.997 20.343 19.595 3.884 13.817-2.613 28.155-15.45 34.089-4.161 1.922-6.641 5.38-6.641 9.257v4.602c-.001 2.897-2.348 5.246-5.248 5.246z" fill="#e8f1f8"/></g><g><path d="m255.997 258.69c-2.9 0-5.247-2.349-5.247-5.247v-4.161c0-2.898 2.347-5.247 5.247-5.247s5.247 2.349 5.247 5.247v4.161c.001 2.898-2.346 5.247-5.247 5.247z" fill="#e8f1f8"/></g></g></g></svg>