<svg id="Capa_1" enable-background="new 0 0 512 512" height="512" viewBox="0 0 512 512" width="512" xmlns="http://www.w3.org/2000/svg"><g><path d="m496 0h-155c-8.284 0-15 6.716-15 15v200c0 8.284 6.716 15 15 15h47.5l25.292 33.722c2.147 2.863 5.17 5.016 8.649 5.853 5.965 1.435 12.021-.857 15.56-5.576l25.5-34h32.499c8.284 0 15-6.716 15-15v-199.999c0-8.284-6.716-15-15-15z" fill="#bceaf9"/><g><path d="m496 0h-70v269.994c4.721 0 9.167-2.217 12-5.994l25.5-34h32.5c8.284 0 15-6.716 15-15v-200c0-8.284-6.716-15-15-15z" fill="#7dd5f4"/></g><g><g><g><g><g><g><g><g><g><g><path d="m116 402h-60c-30.376 0-55 24.624-55 55v40c0 8.284 6.716 15 15 15h155v-55c0-30.376-24.624-55-55-55z" fill="#ffef4a"/><path d="m171 457c0-30.376-24.624-55-55-55h-30v110h85z" fill="#ffcb00"/></g><g><g><path d="m86 422c-33.084 0-60-26.916-60-60s26.916-60 60-60 60 26.916 60 60-26.916 60-60 60z" fill="#ffd7aa"/></g></g></g></g></g></g></g></g></g><path d="m86 302v120c33.084 0 60-26.916 60-60s-26.916-60-60-60z" fill="#ffc58f"/><g><g><g><g><g><g><g><g><g><path d="m286 402h-60c-30.376 0-55 24.624-55 55v55h170v-55c0-30.376-24.624-55-55-55z" fill="#ff8493"/><path d="m341 457c0-30.376-24.624-55-55-55h-30v110h85z" fill="#ff1f3d"/></g><g><g><path d="m256 422c-33.084 0-60-26.916-60-60s26.916-60 60-60 60 26.916 60 60-26.916 60-60 60z" fill="#ffd7aa"/></g></g></g></g></g></g></g></g></g><path d="m256 302v120c33.084 0 60-26.916 60-60s-26.916-60-60-60z" fill="#ffc58f"/></g><g><g><g><g><g><g><g><g><g><path d="m456 402h-60c-30.376 0-55 24.624-55 55v55h155c8.284 0 15-6.716 15-15v-40c0-30.376-24.624-55-55-55z" fill="#bceaf9"/><path d="m511 457c0-30.376-24.624-55-55-55h-30v110h70c8.284 0 15-6.716 15-15z" fill="#7dd5f4"/></g><g><g><path d="m426 422c-33.084 0-60-26.916-60-60s26.916-60 60-60 60 26.916 60 60-26.916 60-60 60z" fill="#ffd7aa"/></g></g></g></g></g></g></g></g></g><path d="m426 302v120c33.084 0 60-26.916 60-60s-26.916-60-60-60z" fill="#ffc58f"/></g></g></g><path d="m350.161 65h-9.161v-65h-170c-8.284 0-15 6.716-15 15v200c0 8.284 6.716 15 15 15h47.5l25.292 33.722c2.147 2.863 5.17 5.016 8.649 5.853 5.965 1.435 12.021-.857 15.56-5.576l25.5-34h47.499v-65h10c27.891 0 50.522-22.955 49.991-50.966-.519-27.373-23.451-49.033-50.83-49.033z" fill="#ff8493"/><path d="m350.161 65h-9.161v-65h-85v269.994c4.721 0 9.167-2.217 12-5.994l25.5-34h47.5v-65h10c27.891 0 50.522-22.955 49.991-50.966-.519-27.374-23.451-49.034-50.83-49.034z" fill="#ff1f3d"/><path d="m181 65h-10v-65h-155c-8.284 0-15 6.716-15 15v200c0 8.284 6.716 15 15 15h32.5l25.5 34c2.833 3.777 7.279 6 12 6s9.167-2.223 12-6l25.5-34h47.5v-65h10c27.57 0 50-22.43 50-50s-22.43-50-50-50z" fill="#ffef4a"/><g><path d="m181 65h-10v-65h-85v270c4.721 0 9.167-2.223 12-6l25.5-34h47.5v-65h10c27.57 0 50-22.43 50-50s-22.43-50-50-50z" fill="#ffcb00"/></g></g></svg>