<svg id="Icons" height="512" viewBox="0 0 60 60" width="512" xmlns="http://www.w3.org/2000/svg"><rect fill="#8c482a" height="54" rx="5" width="44" x="8" y="5"/><rect fill="#fff" height="46" rx="1" width="36" x="12" y="9"/><path d="m38 5v4a1 1 0 0 1 -1 1h-14a1 1 0 0 1 -1-1v-4a1 1 0 0 1 1-1h2.16a4.926 4.926 0 0 1 4.84-3 4.926 4.926 0 0 1 4.84 3h2.16a1 1 0 0 1 1 1z" fill="#c4e1e8"/><path d="m24.267 16.036a1 1 0 0 0 -1.124.449l-2.143 3.572-2.143-3.572a1 1 0 0 0 -1.857.515v8a1 1 0 0 0 2 0v-4.39l1.143 1.905a1.04 1.04 0 0 0 1.714 0l1.143-1.905v4.39a1 1 0 0 0 2 0v-8a1 1 0 0 0 -.733-.964z" fill="#1663bf"/><path d="m34.352 16.063a1 1 0 0 0 -1.289.585l-2.063 5.503-2.063-5.5a1 1 0 0 0 -1.874.7l3 8a1 1 0 0 0 1.874 0l3-8a1 1 0 0 0 -.585-1.288z" fill="#1663bf"/><path d="m39.5 16h-1.5a1 1 0 0 0 -1 1v8a1 1 0 0 0 2 0v-2h.5a3.5 3.5 0 0 0 0-7zm0 5h-.5v-3h.5a1.5 1.5 0 0 1 0 3z" fill="#1663bf"/><path d="m19 35a1 1 0 0 1 -.707-.293l-1-1a1 1 0 0 1 1.414-1.414l.185.185 2.308-3.078a1 1 0 0 1 1.6 1.2l-3 4a1 1 0 0 1 -.729.4z" fill="#0fbc59"/><path d="m19 43a1 1 0 0 1 -.707-.293l-1-1a1 1 0 1 1 1.414-1.414l.185.185 2.308-3.078a1 1 0 1 1 1.6 1.2l-3 4a1 1 0 0 1 -.729.4z" fill="#0fbc59"/><path d="m19 51a1 1 0 0 1 -.707-.293l-1-1a1 1 0 0 1 1.414-1.414l.185.185 2.308-3.078a1 1 0 1 1 1.6 1.2l-3 4a1 1 0 0 1 -.729.4z" fill="#0fbc59"/><g fill="#c4e1e8"><path d="m43 34h-16a1 1 0 0 1 0-2h16a1 1 0 0 1 0 2z"/><path d="m43 42h-16a1 1 0 0 1 0-2h16a1 1 0 0 1 0 2z"/><path d="m43 50h-16a1 1 0 0 1 0-2h16a1 1 0 0 1 0 2z"/></g></svg>