<svg id="Layer_1" enable-background="new 0 0 68 68" height="512" viewBox="0 0 68 68" width="512" xmlns="http://www.w3.org/2000/svg"><g id="_x31_02"><g><g><path d="m65.7 13.8v46.9c0 2.7-2.2 4.9-4.9 4.9h-48s-10.2.7-10.6-6.8l11.5-49.8h47.1c2.7 0 4.9 2.1 4.9 4.8z" fill="#e9e7fc"/></g><g><path d="m2.3 58.8v-45.2c.1-6.9 3.1-10.5 8.8-11.2 1.3-.2 2.5.9 2.5 2.2l.6 45c0 1.3-1 2.3-2.3 2.3-3.1-.1-8.4.7-9.6 6.9z" fill="#cccff2"/></g></g><g><g><g><path d="m39.5 60.9c-.4.4-1.1.4-1.6 0-7.1-6.9-3.9-11.6-2.9-12.6.1-.1.3-.2.5-.2h6.4c.2 0 .4.1.5.2 1 1 4.2 5.7-2.9 12.6z" fill="#ffd475"/></g><g><path d="m39.2 56.3c-.3.3-.7.3-1 0-4.6-4.5-2.5-7.5-1.9-8.1.1-.1.2-.1.3-.1h4.2c.1 0 .2.1.3.1.6.7 2.7 3.7-1.9 8.1z" fill="#f9a83d"/></g></g><g><g><g><path d="m52.7 49.9c-.4.1-.8-.1-1.1-.4l-5.6-5c-3.8-2.2-.7-8.3 3-7.8.8.1 1.6.6 2.1 1.2 1.2 1.4 3.3 4.8 2.9 10.6-.1.7-.6 1.3-1.3 1.4z" fill="#f34b58"/></g><g><path d="m25.2 49.9c.4.1.8-.1 1.1-.4l5.6-5c3.8-2.2.7-8.3-3-7.8-.8.1-1.6.6-2.1 1.2-1.2 1.4-3.3 4.8-2.9 10.6.1.7.6 1.3 1.3 1.4z" fill="#f34b58"/></g></g><g><g><path d="m48.2 48.8c2.1-8.1.8-17.8-3.1-25h-12.3c-3.9 7.3-5.2 17-3.1 25 .2.9 1 1.5 1.9 1.5h14.8c.8-.1 1.6-.7 1.8-1.5z" fill="#fff"/></g><g><path d="m29.4 47.8c.1.3.1.6.2 1 .2.9 1 1.5 1.9 1.5h14.8c.9 0 1.7-.6 1.9-1.5.1-.3.1-.6.2-1z" fill="#1d2943"/></g><g><path d="m45.1 23.7c-1.4-2.6-3.2-4.9-5.2-6.7-.5-.5-1.3-.5-1.9 0-2.1 1.8-3.8 4.1-5.2 6.7z" fill="#f34b58"/></g><g><circle cx="38.9" cy="34" fill="#1d2943" r="5.4"/></g><g><circle cx="38.9" cy="34" fill="#5094ff" r="3.7"/></g></g><g><path d="m41 30.1c.8.2 1.5.8 1.9 1.5s.6 1.6.5 2.4c-.2-.8-.4-1.5-.8-2.2s-1-1.2-1.6-1.7z" fill="#fff"/></g><g opacity=".2"><g><path d="m41.5 36.8c-.7.6-1.5 1-2.5 1-.5 0-.9-.1-1.3-.3l-2.3-4c.2-1.4 1.2-2.6 2.5-3z" fill="#fff"/></g><g><path d="m42.6 34.5c-.1.5-.2.9-.4 1.3l-3.3-5.5c.5 0 .9.1 1.3.3z" fill="#fff"/></g></g><g><path d="m40 43.6v8.9c0 .7-.6 1.3-1.3 1.3s-1.3-.6-1.3-1.3v-8.9c0-.7.6-1.3 1.3-1.3.4 0 .7.1.9.4.3.2.4.5.4.9z" fill="#f34b58"/></g></g></g><g><g><g><g><path d="m35.2 13.9c0 .5-.4.9-.9.9h-2c-.5 0-.9-.4-.9-.9s.4-.9.9-.9h2c.5 0 .9.4.9.9z" fill="#57b3fe"/></g><g><path d="m29.9 13.9c0 .5-.4.9-.9.9h-10.6c-.5 0-.9-.4-.9-.9s.4-.9.9-.9h10.6c.5 0 .9.4.9.9z" fill="#57b3fe"/></g></g></g><g><path d="m24.7 18.4c0 .5-.4.9-.9.9h-5.4c-.5 0-.9-.4-.9-.9s.4-.9.9-.9h5.4c.5 0 .9.4.9.9z" fill="#f34b58"/></g></g><g><path d="m61.9 53.9c-.7-4.9-.8-9.8-.9-14.6 0-4.5.2-10 .9-14.6.7 4.6.8 10.1.9 14.6-.1 4.9-.2 9.7-.9 14.6z" fill="#fff"/></g><g><path d="m5.7 13.5c-.4-1.5-.3-3.2.4-4.8.8-1.8 2.4-2.7 4.1-2.6-1.4.9-2.4 1.5-3.1 3.1-.6 1.3-1 3.3-1.4 4.3z" fill="#fff"/></g></g></svg>